<svg xmlns="http://www.w3.org/2000/svg" width="940" height="430" viewBox="0 0 940 430" role="img"><rect width="100%" height="100%" fill="#ffffff" />
<text x="470.0" y="28" text-anchor="middle" font-size="18" font-weight="700">Wall-Time Speedup vs Full Decompression</text>
<line x1="210" y1="52" x2="210" y2="392" stroke="#333" />
<line x1="210" y1="392" x2="898" y2="392" stroke="#333" />
<line x1="212.7" y1="52" x2="212.7" y2="392" stroke="#222" stroke-dasharray="4 4" />
<text x="216.7" y="66" font-size="11" fill="#222">1.0x</text>
<text x="202" y="77.8" text-anchor="end" font-size="12">Decompressed Text</text>
<rect x="210" y="52.0" width="192.3" height="38.0" fill="#4C78A8" rx="3" />
<text x="408.3" y="77.8" font-size="12">71.58 x</text>
<text x="202" y="125.8" text-anchor="end" font-size="12">Full Decompression</text>
<rect x="210" y="100.0" width="2.7" height="38.0" fill="#F58518" rx="3" />
<text x="218.7" y="125.8" font-size="12">1.00 x</text>
<text x="202" y="173.8" text-anchor="end" font-size="12">Static Bloom</text>
<rect x="210" y="148.0" width="2.5" height="38.0" fill="#B279A2" rx="3" />
<text x="218.5" y="173.8" font-size="12">0.93 x</text>
<text x="202" y="221.8" text-anchor="end" font-size="12">grep Plaintext</text>
<rect x="210" y="196.0" width="103.4" height="38.0" fill="#9D755D" rx="3" />
<text x="319.4" y="221.8" font-size="12">38.51 x</text>
<text x="202" y="269.8" text-anchor="end" font-size="12">ripgrep Plaintext</text>
<rect x="210" y="244.0" width="388.7" height="38.0" fill="#BAB0AC" rx="3" />
<text x="604.7" y="269.8" font-size="12">144.69 x</text>
<text x="202" y="317.8" text-anchor="end" font-size="12">Static Q-Gram qidx3</text>
<rect x="210" y="292.0" width="203.7" height="38.0" fill="#EECA3B" rx="3" />
<text x="419.7" y="317.8" font-size="12">75.85 x</text>
<text x="202" y="365.8" text-anchor="end" font-size="12">Static Q-Gram qidx3 C++</text>
<rect x="210" y="340.0" width="614.3" height="38.0" fill="#FF9DA6" rx="3" />
<text x="830.3" y="365.8" font-size="12">228.69 x</text>
</svg>