<svg xmlns="http://www.w3.org/2000/svg" width="692" height="274" viewBox="0 0 692 274" role="img"><rect width="100%" height="100%" fill="#ffffff" />
<text x="346.0" y="28" text-anchor="middle" font-size="18" font-weight="700">Static Bloom Speedup vs Full Decompression</text>
<text x="161.0" y="74" font-size="10" text-anchor="middle" transform="rotate(-30 161.0 74)">Stress Substring</text>
<text x="227.0" y="74" font-size="10" text-anchor="middle" transform="rotate(-30 227.0 74)">Common Phrase</text>
<text x="293.0" y="74" font-size="10" text-anchor="middle" transform="rotate(-30 293.0 74)">Common Token</text>
<text x="359.0" y="74" font-size="10" text-anchor="middle" transform="rotate(-30 359.0 74)">Conjunctive</text>
<text x="425.0" y="74" font-size="10" text-anchor="middle" transform="rotate(-30 425.0 74)">Medium Token</text>
<text x="491.0" y="74" font-size="10" text-anchor="middle" transform="rotate(-30 491.0 74)">Numeric ID</text>
<text x="557.0" y="74" font-size="10" text-anchor="middle" transform="rotate(-30 557.0 74)">Rare Token</text>
<text x="623.0" y="74" font-size="10" text-anchor="middle" transform="rotate(-30 623.0 74)">Selective Phrase</text>
<text x="118" y="132" font-size="11" text-anchor="end">apache</text>
<rect x="128" y="94" width="63" height="63" fill="rgb(190,120,100)" rx="4" />
<text x="161.0" y="131" text-anchor="middle" font-size="11" fill="#111">0.56</text>
<rect x="194" y="94" width="63" height="63" fill="rgb(153,150,114)" rx="4" />
<text x="227.0" y="131" text-anchor="middle" font-size="11" fill="#111">1.15</text>
<rect x="260" y="94" width="63" height="63" fill="rgb(182,126,103)" rx="4" />
<text x="293.0" y="131" text-anchor="middle" font-size="11" fill="#111">0.68</text>
<rect x="326" y="94" width="63" height="63" fill="rgb(157,147,112)" rx="4" />
<text x="359.0" y="131" text-anchor="middle" font-size="11" fill="#111">1.09</text>
<rect x="392" y="94" width="63" height="63" fill="rgb(193,117,99)" rx="4" />
<text x="425.0" y="131" text-anchor="middle" font-size="11" fill="#111">0.51</text>
<rect x="458" y="94" width="63" height="63" fill="rgb(182,126,103)" rx="4" />
<text x="491.0" y="131" text-anchor="middle" font-size="11" fill="#111">0.69</text>
<rect x="524" y="94" width="63" height="63" fill="rgb(205,108,94)" rx="4" />
<text x="557.0" y="131" text-anchor="middle" font-size="11" fill="#111">0.32</text>
<rect x="590" y="94" width="63" height="63" fill="rgb(170,136,107)" rx="4" />
<text x="623.0" y="131" text-anchor="middle" font-size="11" fill="#111">0.88</text>
<text x="118" y="198" font-size="11" text-anchor="end">linux</text>
<rect x="128" y="160" width="63" height="63" fill="rgb(175,132,105)" rx="4" />
<text x="161.0" y="197" text-anchor="middle" font-size="11" fill="#111">0.80</text>
<rect x="194" y="160" width="63" height="63" fill="rgb(118,178,127)" rx="4" />
<text x="227.0" y="197" text-anchor="middle" font-size="11" fill="#111">1.70</text>
<rect x="260" y="160" width="63" height="63" fill="rgb(182,127,103)" rx="4" />
<text x="293.0" y="197" text-anchor="middle" font-size="11" fill="#111">0.70</text>
<rect x="326" y="160" width="63" height="63" fill="rgb(120,176,126)" rx="4" />
<text x="359.0" y="197" text-anchor="middle" font-size="11" fill="#111">1.67</text>
<rect x="392" y="160" width="63" height="63" fill="rgb(164,141,110)" rx="4" />
<text x="425.0" y="197" text-anchor="middle" font-size="11" fill="#111">0.98</text>
<rect x="458" y="160" width="63" height="63" fill="rgb(173,133,106)" rx="4" />
<text x="491.0" y="197" text-anchor="middle" font-size="11" fill="#111">0.83</text>
<rect x="524" y="160" width="63" height="63" fill="rgb(145,156,116)" rx="4" />
<text x="557.0" y="197" text-anchor="middle" font-size="11" fill="#111">1.27</text>
<rect x="590" y="160" width="63" height="63" fill="rgb(108,187,131)" rx="4" />
<text x="623.0" y="197" text-anchor="middle" font-size="11" fill="#111">1.87</text>
</svg>