<svg xmlns="http://www.w3.org/2000/svg" width="692" height="208" viewBox="0 0 692 208" role="img"><rect width="100%" height="100%" fill="#ffffff" />
<text x="346.0" y="28" text-anchor="middle" font-size="18" font-weight="700">Static Bloom Speedup vs Full Decompression</text>
<text x="161.0" y="74" font-size="10" text-anchor="middle" transform="rotate(-30 161.0 74)">Stress Substring</text>
<text x="227.0" y="74" font-size="10" text-anchor="middle" transform="rotate(-30 227.0 74)">Common Phrase</text>
<text x="293.0" y="74" font-size="10" text-anchor="middle" transform="rotate(-30 293.0 74)">Common Token</text>
<text x="359.0" y="74" font-size="10" text-anchor="middle" transform="rotate(-30 359.0 74)">Conjunctive</text>
<text x="425.0" y="74" font-size="10" text-anchor="middle" transform="rotate(-30 425.0 74)">Medium Token</text>
<text x="491.0" y="74" font-size="10" text-anchor="middle" transform="rotate(-30 491.0 74)">Numeric ID</text>
<text x="557.0" y="74" font-size="10" text-anchor="middle" transform="rotate(-30 557.0 74)">Rare Token</text>
<text x="623.0" y="74" font-size="10" text-anchor="middle" transform="rotate(-30 623.0 74)">Selective Phrase</text>
<text x="118" y="132" font-size="11" text-anchor="end">linux</text>
<rect x="128" y="94" width="63" height="63" fill="rgb(150,152,115)" rx="4" />
<text x="161.0" y="131" text-anchor="middle" font-size="11" fill="#111">1.17</text>
<rect x="194" y="94" width="63" height="63" fill="rgb(117,179,127)" rx="4" />
<text x="227.0" y="131" text-anchor="middle" font-size="11" fill="#111">1.69</text>
<rect x="260" y="94" width="63" height="63" fill="rgb(186,123,101)" rx="4" />
<text x="293.0" y="131" text-anchor="middle" font-size="11" fill="#111">0.61</text>
<rect x="326" y="94" width="63" height="63" fill="rgb(125,172,124)" rx="4" />
<text x="359.0" y="131" text-anchor="middle" font-size="11" fill="#111">1.57</text>
<rect x="392" y="94" width="63" height="63" fill="rgb(165,140,109)" rx="4" />
<text x="425.0" y="131" text-anchor="middle" font-size="11" fill="#111">0.94</text>
<rect x="458" y="94" width="63" height="63" fill="rgb(186,123,101)" rx="4" />
<text x="491.0" y="131" text-anchor="middle" font-size="11" fill="#111">0.61</text>
<rect x="524" y="94" width="63" height="63" fill="rgb(144,157,117)" rx="4" />
<text x="557.0" y="131" text-anchor="middle" font-size="11" fill="#111">1.27</text>
<rect x="590" y="94" width="63" height="63" fill="rgb(108,187,131)" rx="4" />
<text x="623.0" y="131" text-anchor="middle" font-size="11" fill="#111">1.84</text>
</svg>