<svg xmlns="http://www.w3.org/2000/svg" width="960" height="540" viewBox="0 0 960 540" role="img"><rect width="100%" height="100%" fill="#ffffff" />
<text x="480.0" y="28" text-anchor="middle" font-size="18" font-weight="700">Minor Optimization: Speedup vs Recall</text>
<line x1="80" y1="54" x2="80" y2="476" stroke="#333" />
<line x1="80" y1="476" x2="720" y2="476" stroke="#333" />
<line x1="341.2" y1="54" x2="341.2" y2="476" stroke="#222" stroke-dasharray="4 4" />
<line x1="80" y1="54" x2="720" y2="54" stroke="#222" stroke-dasharray="4 4" />
<circle cx="408.8" cy="89.5" r="5" fill="#54A24B" opacity="0.86" />
<circle cx="591.0" cy="74.1" r="5" fill="#54A24B" opacity="0.86" />
<text x="598.0" y="78.1" font-size="9">android / Common Phrase</text>
<circle cx="481.4" cy="81.9" r="5" fill="#54A24B" opacity="0.86" />
<circle cx="587.9" cy="74.1" r="5" fill="#54A24B" opacity="0.86" />
<text x="594.9" y="78.1" font-size="9">android / Conjunctive</text>
<circle cx="509.6" cy="80.3" r="5" fill="#54A24B" opacity="0.86" />
<text x="516.6" y="84.3" font-size="9">android / Medium Token</text>
<circle cx="622.1" cy="177.1" r="5" fill="#54A24B" opacity="0.86" />
<text x="629.1" y="181.1" font-size="9">android / Numeric ID</text>
<circle cx="618.4" cy="129.5" r="5" fill="#54A24B" opacity="0.86" />
<text x="625.4" y="133.5" font-size="9">android / Rare Token</text>
<circle cx="621.0" cy="74.1" r="5" fill="#54A24B" opacity="0.86" />
<text x="628.0" y="78.1" font-size="9">android / Selective Phrase</text>
<circle cx="361.3" cy="74.1" r="5" fill="#54A24B" opacity="0.86" />
<circle cx="450.8" cy="74.1" r="5" fill="#54A24B" opacity="0.86" />
<circle cx="353.7" cy="74.1" r="5" fill="#54A24B" opacity="0.86" />
<circle cx="440.6" cy="74.1" r="5" fill="#54A24B" opacity="0.86" />
<circle cx="443.9" cy="74.1" r="5" fill="#54A24B" opacity="0.86" />
<circle cx="470.1" cy="74.1" r="5" fill="#54A24B" opacity="0.86" />
<circle cx="469.2" cy="74.1" r="5" fill="#54A24B" opacity="0.86" />
<circle cx="480.3" cy="74.1" r="5" fill="#54A24B" opacity="0.86" />
<circle cx="372.1" cy="79.2" r="5" fill="#54A24B" opacity="0.86" />
<circle cx="440.7" cy="84.2" r="5" fill="#54A24B" opacity="0.86" />
<circle cx="376.6" cy="79.2" r="5" fill="#54A24B" opacity="0.86" />
<circle cx="437.9" cy="84.2" r="5" fill="#54A24B" opacity="0.86" />
<circle cx="431.9" cy="84.1" r="5" fill="#54A24B" opacity="0.86" />
<circle cx="442.1" cy="385.6" r="5" fill="#54A24B" opacity="0.86" />
<text x="449.1" y="389.6" font-size="9">bgl / Numeric ID</text>
<circle cx="437.0" cy="74.1" r="5" fill="#54A24B" opacity="0.86" />
<circle cx="451.7" cy="74.1" r="5" fill="#54A24B" opacity="0.86" />
<circle cx="568.5" cy="74.1" r="5" fill="#54A24B" opacity="0.86" />
<text x="575.5" y="78.1" font-size="9">hadoop / Stress Substring</text>
<circle cx="642.6" cy="74.1" r="5" fill="#54A24B" opacity="0.86" />
<text x="649.6" y="78.1" font-size="9">hadoop / Common Phrase</text>
<circle cx="568.0" cy="74.1" r="5" fill="#54A24B" opacity="0.86" />
<text x="575.0" y="78.1" font-size="9">hadoop / Common Token</text>
<circle cx="642.9" cy="74.1" r="5" fill="#54A24B" opacity="0.86" />
<text x="649.9" y="78.1" font-size="9">hadoop / Conjunctive</text>
<circle cx="603.4" cy="74.1" r="5" fill="#54A24B" opacity="0.86" />
<text x="610.4" y="78.1" font-size="9">hadoop / Medium Token</text>
<circle cx="615.6" cy="308.5" r="5" fill="#54A24B" opacity="0.86" />
<text x="622.6" y="312.5" font-size="9">hadoop / Numeric ID</text>
<circle cx="596.8" cy="288.4" r="5" fill="#54A24B" opacity="0.86" />
<text x="603.8" y="292.4" font-size="9">hadoop / Rare Token</text>
<circle cx="651.4" cy="74.1" r="5" fill="#54A24B" opacity="0.86" />
<text x="658.4" y="78.1" font-size="9">hadoop / Selective Phrase</text>
<circle cx="353.1" cy="74.1" r="5" fill="#54A24B" opacity="0.86" />
<circle cx="406.6" cy="74.1" r="5" fill="#54A24B" opacity="0.86" />
<circle cx="360.7" cy="74.1" r="5" fill="#54A24B" opacity="0.86" />
<circle cx="391.6" cy="74.1" r="5" fill="#54A24B" opacity="0.86" />
<circle cx="380.9" cy="74.1" r="5" fill="#54A24B" opacity="0.86" />
<circle cx="394.9" cy="276.8" r="5" fill="#54A24B" opacity="0.86" />
<text x="401.9" y="280.8" font-size="9">hdfs / Numeric ID</text>
<circle cx="396.9" cy="356.0" r="5" fill="#54A24B" opacity="0.86" />
<text x="403.9" y="360.0" font-size="9">hdfs / Rare Token</text>
<circle cx="410.0" cy="255.0" r="5" fill="#54A24B" opacity="0.86" />
<text x="417.0" y="259.0" font-size="9">hdfs / Selective Phrase</text>
<circle cx="425.1" cy="77.5" r="5" fill="#54A24B" opacity="0.86" />
<circle cx="455.9" cy="74.1" r="5" fill="#54A24B" opacity="0.86" />
<circle cx="414.7" cy="77.5" r="5" fill="#54A24B" opacity="0.86" />
<circle cx="448.6" cy="74.1" r="5" fill="#54A24B" opacity="0.86" />
<circle cx="466.8" cy="74.1" r="5" fill="#54A24B" opacity="0.86" />
<circle cx="450.1" cy="389.9" r="5" fill="#54A24B" opacity="0.86" />
<text x="457.1" y="393.9" font-size="9">healthapp / Numeric ID</text>
<circle cx="426.5" cy="74.1" r="5" fill="#54A24B" opacity="0.86" />
<circle cx="470.2" cy="476.0" r="5" fill="#54A24B" opacity="0.86" />
<text x="477.2" y="480.0" font-size="9">healthapp / Selective Phrase</text>
<circle cx="372.6" cy="78.7" r="5" fill="#54A24B" opacity="0.86" />
<circle cx="434.0" cy="239.2" r="5" fill="#54A24B" opacity="0.86" />
<text x="441.0" y="243.2" font-size="9">hpc / Common Phrase</text>
<circle cx="372.0" cy="107.9" r="5" fill="#54A24B" opacity="0.86" />
<text x="379.0" y="111.9" font-size="9">hpc / Common Token</text>
<circle cx="432.6" cy="239.2" r="5" fill="#54A24B" opacity="0.86" />
<text x="439.6" y="243.2" font-size="9">hpc / Conjunctive</text>
<circle cx="435.5" cy="97.5" r="5" fill="#54A24B" opacity="0.86" />
<text x="442.5" y="101.5" font-size="9">hpc / Medium Token</text>
<circle cx="426.7" cy="105.8" r="5" fill="#54A24B" opacity="0.86" />
<text x="433.7" y="109.8" font-size="9">hpc / Numeric ID</text>
<circle cx="435.7" cy="268.6" r="5" fill="#54A24B" opacity="0.86" />
<text x="442.7" y="272.6" font-size="9">hpc / Rare Token</text>
<circle cx="435.2" cy="74.1" r="5" fill="#54A24B" opacity="0.86" />
<circle cx="380.7" cy="95.2" r="5" fill="#54A24B" opacity="0.86" />
<text x="387.7" y="99.2" font-size="9">linux / Stress Substring</text>
<circle cx="501.9" cy="74.1" r="5" fill="#54A24B" opacity="0.86" />
<text x="508.9" y="78.1" font-size="9">linux / Common Phrase</text>
<circle cx="446.6" cy="104.1" r="5" fill="#54A24B" opacity="0.86" />
<text x="453.6" y="108.1" font-size="9">linux / Common Token</text>
<circle cx="511.9" cy="74.1" r="5" fill="#54A24B" opacity="0.86" />
<text x="518.9" y="78.1" font-size="9">linux / Conjunctive</text>
<circle cx="491.4" cy="74.1" r="5" fill="#54A24B" opacity="0.86" />
<circle cx="522.4" cy="476.0" r="5" fill="#54A24B" opacity="0.86" />
<text x="529.4" y="480.0" font-size="9">linux / Numeric ID</text>
<circle cx="466.3" cy="476.0" r="5" fill="#54A24B" opacity="0.86" />
<text x="473.3" y="480.0" font-size="9">linux / Rare Token</text>
<circle cx="551.2" cy="476.0" r="5" fill="#54A24B" opacity="0.86" />
<text x="558.2" y="480.0" font-size="9">linux / Selective Phrase</text>
<circle cx="454.7" cy="91.1" r="5" fill="#54A24B" opacity="0.86" />
<circle cx="520.6" cy="153.6" r="5" fill="#54A24B" opacity="0.86" />
<text x="527.6" y="157.6" font-size="9">mac / Common Phrase</text>
<circle cx="469.5" cy="92.0" r="5" fill="#54A24B" opacity="0.86" />
<circle cx="510.6" cy="152.4" r="5" fill="#54A24B" opacity="0.86" />
<text x="517.6" y="156.4" font-size="9">mac / Conjunctive</text>
<circle cx="517.0" cy="103.0" r="5" fill="#54A24B" opacity="0.86" />
<text x="524.0" y="107.0" font-size="9">mac / Medium Token</text>
<circle cx="540.6" cy="90.8" r="5" fill="#54A24B" opacity="0.86" />
<text x="547.6" y="94.8" font-size="9">mac / Numeric ID</text>
<circle cx="508.2" cy="152.2" r="5" fill="#54A24B" opacity="0.86" />
<text x="515.2" y="156.2" font-size="9">mac / Rare Token</text>
<circle cx="530.7" cy="74.1" r="5" fill="#54A24B" opacity="0.86" />
<text x="537.7" y="78.1" font-size="9">mac / Selective Phrase</text>
<circle cx="380.3" cy="86.3" r="5" fill="#54A24B" opacity="0.86" />
<circle cx="463.6" cy="74.1" r="5" fill="#54A24B" opacity="0.86" />
<circle cx="434.4" cy="74.6" r="5" fill="#54A24B" opacity="0.86" />
<circle cx="447.7" cy="74.1" r="5" fill="#54A24B" opacity="0.86" />
<circle cx="437.0" cy="101.7" r="5" fill="#54A24B" opacity="0.86" />
<text x="444.0" y="105.7" font-size="9">openssh / Medium Token</text>
<circle cx="481.7" cy="228.0" r="5" fill="#54A24B" opacity="0.86" />
<text x="488.7" y="232.0" font-size="9">openssh / Numeric ID</text>
<circle cx="486.6" cy="275.0" r="5" fill="#54A24B" opacity="0.86" />
<text x="493.6" y="279.0" font-size="9">openssh / Rare Token</text>
<circle cx="495.9" cy="220.2" r="5" fill="#54A24B" opacity="0.86" />
<text x="502.9" y="224.2" font-size="9">openssh / Selective Phrase</text>
<circle cx="396.5" cy="74.1" r="5" fill="#54A24B" opacity="0.86" />
<circle cx="426.8" cy="74.1" r="5" fill="#54A24B" opacity="0.86" />
<circle cx="401.7" cy="74.1" r="5" fill="#54A24B" opacity="0.86" />
<circle cx="425.4" cy="74.1" r="5" fill="#54A24B" opacity="0.86" />
<circle cx="439.9" cy="75.6" r="5" fill="#54A24B" opacity="0.86" />
<circle cx="444.8" cy="476.0" r="5" fill="#54A24B" opacity="0.86" />
<text x="451.8" y="480.0" font-size="9">openstack / Numeric ID</text>
<circle cx="445.3" cy="476.0" r="5" fill="#54A24B" opacity="0.86" />
<text x="452.3" y="480.0" font-size="9">openstack / Rare Token</text>
<circle cx="447.5" cy="74.1" r="5" fill="#54A24B" opacity="0.86" />
<circle cx="366.4" cy="88.2" r="5" fill="#54A24B" opacity="0.86" />
<circle cx="396.9" cy="98.8" r="5" fill="#54A24B" opacity="0.86" />
<text x="403.9" y="102.8" font-size="9">proxifier / Common Phrase</text>
<circle cx="379.2" cy="88.2" r="5" fill="#54A24B" opacity="0.86" />
<circle cx="373.8" cy="85.1" r="5" fill="#54A24B" opacity="0.86" />
<circle cx="418.1" cy="281.6" r="5" fill="#54A24B" opacity="0.86" />
<text x="425.1" y="285.6" font-size="9">proxifier / Medium Token</text>
<circle cx="429.3" cy="97.1" r="5" fill="#54A24B" opacity="0.86" />
<text x="436.3" y="101.1" font-size="9">proxifier / Numeric ID</text>
<circle cx="431.2" cy="234.9" r="5" fill="#54A24B" opacity="0.86" />
<text x="438.2" y="238.9" font-size="9">proxifier / Rare Token</text>
<circle cx="440.5" cy="97.7" r="5" fill="#54A24B" opacity="0.86" />
<text x="447.5" y="101.7" font-size="9">proxifier / Selective Phrase</text>
<circle cx="454.0" cy="78.9" r="5" fill="#54A24B" opacity="0.86" />
<circle cx="487.0" cy="76.8" r="5" fill="#54A24B" opacity="0.86" />
<circle cx="443.5" cy="78.9" r="5" fill="#54A24B" opacity="0.86" />
<circle cx="488.8" cy="76.8" r="5" fill="#54A24B" opacity="0.86" />
<circle cx="511.1" cy="74.1" r="5" fill="#54A24B" opacity="0.86" />
<text x="518.1" y="78.1" font-size="9">spark / Medium Token</text>
<circle cx="516.8" cy="74.1" r="5" fill="#54A24B" opacity="0.86" />
<text x="523.8" y="78.1" font-size="9">spark / Numeric ID</text>
<circle cx="516.7" cy="301.8" r="5" fill="#54A24B" opacity="0.86" />
<text x="523.7" y="305.8" font-size="9">spark / Rare Token</text>
<circle cx="508.4" cy="74.1" r="5" fill="#54A24B" opacity="0.86" />
<text x="515.4" y="78.1" font-size="9">spark / Selective Phrase</text>
<circle cx="421.2" cy="74.1" r="5" fill="#54A24B" opacity="0.86" />
<circle cx="475.5" cy="74.1" r="5" fill="#54A24B" opacity="0.86" />
<circle cx="419.6" cy="74.1" r="5" fill="#54A24B" opacity="0.86" />
<circle cx="473.5" cy="74.1" r="5" fill="#54A24B" opacity="0.86" />
<circle cx="458.6" cy="92.9" r="5" fill="#54A24B" opacity="0.86" />
<circle cx="469.6" cy="97.1" r="5" fill="#54A24B" opacity="0.86" />
<text x="476.6" y="101.1" font-size="9">thunderbird / Numeric ID</text>
<circle cx="482.0" cy="234.9" r="5" fill="#54A24B" opacity="0.86" />
<text x="489.0" y="238.9" font-size="9">thunderbird / Rare Token</text>
<circle cx="456.9" cy="174.6" r="5" fill="#54A24B" opacity="0.86" />
<text x="463.9" y="178.6" font-size="9">thunderbird / Selective Phrase</text>
<circle cx="532.5" cy="74.1" r="5" fill="#54A24B" opacity="0.86" />
<text x="539.5" y="78.1" font-size="9">windows / Stress Substring</text>
<circle cx="607.2" cy="74.1" r="5" fill="#54A24B" opacity="0.86" />
<text x="614.2" y="78.1" font-size="9">windows / Common Phrase</text>
<circle cx="547.8" cy="74.1" r="5" fill="#54A24B" opacity="0.86" />
<text x="554.8" y="78.1" font-size="9">windows / Common Token</text>
<circle cx="591.5" cy="74.1" r="5" fill="#54A24B" opacity="0.86" />
<text x="598.5" y="78.1" font-size="9">windows / Conjunctive</text>
<circle cx="579.5" cy="74.1" r="5" fill="#54A24B" opacity="0.86" />
<text x="586.5" y="78.1" font-size="9">windows / Medium Token</text>
<circle cx="638.6" cy="476.0" r="5" fill="#54A24B" opacity="0.86" />
<text x="645.6" y="480.0" font-size="9">windows / Numeric ID</text>
<circle cx="471.1" cy="74.1" r="5" fill="#54A24B" opacity="0.86" />
<circle cx="641.9" cy="476.0" r="5" fill="#54A24B" opacity="0.86" />
<text x="648.9" y="480.0" font-size="9">windows / Selective Phrase</text>
<circle cx="440.2" cy="74.1" r="5" fill="#54A24B" opacity="0.86" />
<circle cx="463.9" cy="74.1" r="5" fill="#54A24B" opacity="0.86" />
<circle cx="444.3" cy="74.1" r="5" fill="#54A24B" opacity="0.86" />
<circle cx="483.1" cy="74.1" r="5" fill="#54A24B" opacity="0.86" />
<circle cx="469.3" cy="74.1" r="5" fill="#54A24B" opacity="0.86" />
<circle cx="473.3" cy="93.7" r="5" fill="#54A24B" opacity="0.86" />
<circle cx="468.5" cy="89.4" r="5" fill="#54A24B" opacity="0.86" />
<circle cx="493.6" cy="74.1" r="5" fill="#54A24B" opacity="0.86" />
<text x="400.0" y="522" text-anchor="middle" font-size="13">Speedup vs Full Decompression (x)</text>
<text x="18" y="265.0" text-anchor="middle" font-size="13" transform="rotate(-90 18 265.0)">Recall</text>
</svg>