<svg xmlns="http://www.w3.org/2000/svg" width="960" height="540" viewBox="0 0 960 540" role="img"><rect width="100%" height="100%" fill="#ffffff" />
<text x="480.0" y="28" text-anchor="middle" font-size="18" font-weight="700">Minor Optimization: Speedup vs Recall</text>
<line x1="80" y1="54" x2="80" y2="476" stroke="#333" />
<line x1="80" y1="476" x2="720" y2="476" stroke="#333" />
<line x1="324.6" y1="54" x2="324.6" y2="476" stroke="#222" stroke-dasharray="4 4" />
<line x1="80" y1="54" x2="720" y2="54" stroke="#222" stroke-dasharray="4 4" />
<circle cx="348.6" cy="89.5" r="5" fill="#54A24B" opacity="0.86" />
<circle cx="558.9" cy="74.1" r="5" fill="#54A24B" opacity="0.86" />
<text x="565.9" y="78.1" font-size="9">android / Common Phrase</text>
<circle cx="368.8" cy="81.9" r="5" fill="#54A24B" opacity="0.86" />
<circle cx="563.0" cy="74.1" r="5" fill="#54A24B" opacity="0.86" />
<text x="570.0" y="78.1" font-size="9">android / Conjunctive</text>
<circle cx="493.1" cy="80.3" r="5" fill="#54A24B" opacity="0.86" />
<text x="500.1" y="84.3" font-size="9">android / Medium Token</text>
<circle cx="584.4" cy="177.1" r="5" fill="#54A24B" opacity="0.86" />
<text x="591.4" y="181.1" font-size="9">android / Numeric ID</text>
<circle cx="603.1" cy="129.5" r="5" fill="#54A24B" opacity="0.86" />
<text x="610.1" y="133.5" font-size="9">android / Rare Token</text>
<circle cx="648.8" cy="74.1" r="5" fill="#54A24B" opacity="0.86" />
<text x="655.8" y="78.1" font-size="9">android / Selective Phrase</text>
<circle cx="341.1" cy="74.1" r="5" fill="#54A24B" opacity="0.86" />
<circle cx="414.5" cy="74.1" r="5" fill="#54A24B" opacity="0.86" />
<circle cx="340.0" cy="74.1" r="5" fill="#54A24B" opacity="0.86" />
<circle cx="416.3" cy="74.1" r="5" fill="#54A24B" opacity="0.86" />
<circle cx="417.1" cy="74.1" r="5" fill="#54A24B" opacity="0.86" />
<circle cx="435.9" cy="74.1" r="5" fill="#54A24B" opacity="0.86" />
<circle cx="446.0" cy="74.1" r="5" fill="#54A24B" opacity="0.86" />
<circle cx="453.1" cy="74.1" r="5" fill="#54A24B" opacity="0.86" />
<circle cx="307.9" cy="79.2" r="5" fill="#54A24B" opacity="0.86" />
<circle cx="425.5" cy="84.2" r="5" fill="#54A24B" opacity="0.86" />
<circle cx="360.2" cy="79.2" r="5" fill="#54A24B" opacity="0.86" />
<circle cx="437.6" cy="84.2" r="5" fill="#54A24B" opacity="0.86" />
<circle cx="411.4" cy="84.1" r="5" fill="#54A24B" opacity="0.86" />
<circle cx="419.2" cy="385.6" r="5" fill="#54A24B" opacity="0.86" />
<text x="426.2" y="389.6" font-size="9">bgl / Numeric ID</text>
<circle cx="415.4" cy="74.1" r="5" fill="#54A24B" opacity="0.86" />
<circle cx="450.7" cy="74.1" r="5" fill="#54A24B" opacity="0.86" />
<circle cx="514.2" cy="74.1" r="5" fill="#54A24B" opacity="0.86" />
<text x="521.2" y="78.1" font-size="9">hadoop / Stress Substring</text>
<circle cx="598.4" cy="74.1" r="5" fill="#54A24B" opacity="0.86" />
<text x="605.4" y="78.1" font-size="9">hadoop / Common Phrase</text>
<circle cx="528.9" cy="74.1" r="5" fill="#54A24B" opacity="0.86" />
<text x="535.9" y="78.1" font-size="9">hadoop / Common Token</text>
<circle cx="651.4" cy="74.1" r="5" fill="#54A24B" opacity="0.86" />
<text x="658.4" y="78.1" font-size="9">hadoop / Conjunctive</text>
<circle cx="569.0" cy="74.1" r="5" fill="#54A24B" opacity="0.86" />
<text x="576.0" y="78.1" font-size="9">hadoop / Medium Token</text>
<circle cx="554.8" cy="308.5" r="5" fill="#54A24B" opacity="0.86" />
<text x="561.8" y="312.5" font-size="9">hadoop / Numeric ID</text>
<circle cx="552.6" cy="288.4" r="5" fill="#54A24B" opacity="0.86" />
<text x="559.6" y="292.4" font-size="9">hadoop / Rare Token</text>
<circle cx="611.0" cy="74.1" r="5" fill="#54A24B" opacity="0.86" />
<text x="618.0" y="78.1" font-size="9">hadoop / Selective Phrase</text>
<circle cx="338.1" cy="74.1" r="5" fill="#54A24B" opacity="0.86" />
<circle cx="392.0" cy="74.1" r="5" fill="#54A24B" opacity="0.86" />
<circle cx="339.5" cy="74.1" r="5" fill="#54A24B" opacity="0.86" />
<circle cx="364.3" cy="74.1" r="5" fill="#54A24B" opacity="0.86" />
<circle cx="369.1" cy="74.1" r="5" fill="#54A24B" opacity="0.86" />
<circle cx="359.6" cy="276.8" r="5" fill="#54A24B" opacity="0.86" />
<text x="366.6" y="280.8" font-size="9">hdfs / Numeric ID</text>
<circle cx="372.9" cy="356.0" r="5" fill="#54A24B" opacity="0.86" />
<text x="379.9" y="360.0" font-size="9">hdfs / Rare Token</text>
<circle cx="392.8" cy="255.0" r="5" fill="#54A24B" opacity="0.86" />
<text x="399.8" y="259.0" font-size="9">hdfs / Selective Phrase</text>
<circle cx="397.6" cy="77.5" r="5" fill="#54A24B" opacity="0.86" />
<circle cx="425.4" cy="74.1" r="5" fill="#54A24B" opacity="0.86" />
<circle cx="525.7" cy="77.5" r="5" fill="#54A24B" opacity="0.86" />
<text x="532.7" y="81.5" font-size="9">healthapp / Common Token</text>
<circle cx="421.9" cy="74.1" r="5" fill="#54A24B" opacity="0.86" />
<circle cx="440.4" cy="74.1" r="5" fill="#54A24B" opacity="0.86" />
<circle cx="428.3" cy="389.9" r="5" fill="#54A24B" opacity="0.86" />
<text x="435.3" y="393.9" font-size="9">healthapp / Numeric ID</text>
<circle cx="432.0" cy="74.1" r="5" fill="#54A24B" opacity="0.86" />
<circle cx="444.0" cy="476.0" r="5" fill="#54A24B" opacity="0.86" />
<text x="451.0" y="480.0" font-size="9">healthapp / Selective Phrase</text>
<circle cx="373.5" cy="78.7" r="5" fill="#54A24B" opacity="0.86" />
<circle cx="397.8" cy="239.2" r="5" fill="#54A24B" opacity="0.86" />
<text x="404.8" y="243.2" font-size="9">hpc / Common Phrase</text>
<circle cx="366.6" cy="107.9" r="5" fill="#54A24B" opacity="0.86" />
<text x="373.6" y="111.9" font-size="9">hpc / Common Token</text>
<circle cx="403.4" cy="239.2" r="5" fill="#54A24B" opacity="0.86" />
<text x="410.4" y="243.2" font-size="9">hpc / Conjunctive</text>
<circle cx="429.8" cy="97.5" r="5" fill="#54A24B" opacity="0.86" />
<text x="436.8" y="101.5" font-size="9">hpc / Medium Token</text>
<circle cx="388.7" cy="105.8" r="5" fill="#54A24B" opacity="0.86" />
<text x="395.7" y="109.8" font-size="9">hpc / Numeric ID</text>
<circle cx="414.5" cy="268.6" r="5" fill="#54A24B" opacity="0.86" />
<text x="421.5" y="272.6" font-size="9">hpc / Rare Token</text>
<circle cx="400.5" cy="74.1" r="5" fill="#54A24B" opacity="0.86" />
<circle cx="366.7" cy="95.2" r="5" fill="#54A24B" opacity="0.86" />
<text x="373.7" y="99.2" font-size="9">linux / Stress Substring</text>
<circle cx="479.4" cy="74.1" r="5" fill="#54A24B" opacity="0.86" />
<text x="486.4" y="78.1" font-size="9">linux / Common Phrase</text>
<circle cx="429.0" cy="104.1" r="5" fill="#54A24B" opacity="0.86" />
<text x="436.0" y="108.1" font-size="9">linux / Common Token</text>
<circle cx="479.7" cy="74.1" r="5" fill="#54A24B" opacity="0.86" />
<text x="486.7" y="78.1" font-size="9">linux / Conjunctive</text>
<circle cx="463.1" cy="74.1" r="5" fill="#54A24B" opacity="0.86" />
<circle cx="491.8" cy="476.0" r="5" fill="#54A24B" opacity="0.86" />
<text x="498.8" y="480.0" font-size="9">linux / Numeric ID</text>
<circle cx="491.2" cy="476.0" r="5" fill="#54A24B" opacity="0.86" />
<text x="498.2" y="480.0" font-size="9">linux / Rare Token</text>
<circle cx="488.4" cy="476.0" r="5" fill="#54A24B" opacity="0.86" />
<text x="495.4" y="480.0" font-size="9">linux / Selective Phrase</text>
<circle cx="424.7" cy="91.1" r="5" fill="#54A24B" opacity="0.86" />
<circle cx="509.1" cy="153.6" r="5" fill="#54A24B" opacity="0.86" />
<text x="516.1" y="157.6" font-size="9">mac / Common Phrase</text>
<circle cx="562.6" cy="92.0" r="5" fill="#54A24B" opacity="0.86" />
<text x="569.6" y="96.0" font-size="9">mac / Common Token</text>
<circle cx="463.9" cy="152.4" r="5" fill="#54A24B" opacity="0.86" />
<text x="470.9" y="156.4" font-size="9">mac / Conjunctive</text>
<circle cx="517.9" cy="103.0" r="5" fill="#54A24B" opacity="0.86" />
<text x="524.9" y="107.0" font-size="9">mac / Medium Token</text>
<circle cx="516.2" cy="90.8" r="5" fill="#54A24B" opacity="0.86" />
<text x="523.2" y="94.8" font-size="9">mac / Numeric ID</text>
<circle cx="519.4" cy="152.2" r="5" fill="#54A24B" opacity="0.86" />
<text x="526.4" y="156.2" font-size="9">mac / Rare Token</text>
<circle cx="480.6" cy="74.1" r="5" fill="#54A24B" opacity="0.86" />
<text x="487.6" y="78.1" font-size="9">mac / Selective Phrase</text>
<circle cx="362.2" cy="86.3" r="5" fill="#54A24B" opacity="0.86" />
<circle cx="432.2" cy="74.1" r="5" fill="#54A24B" opacity="0.86" />
<circle cx="410.0" cy="74.6" r="5" fill="#54A24B" opacity="0.86" />
<circle cx="430.4" cy="74.1" r="5" fill="#54A24B" opacity="0.86" />
<circle cx="418.6" cy="101.7" r="5" fill="#54A24B" opacity="0.86" />
<text x="425.6" y="105.7" font-size="9">openssh / Medium Token</text>
<circle cx="457.8" cy="228.0" r="5" fill="#54A24B" opacity="0.86" />
<text x="464.8" y="232.0" font-size="9">openssh / Numeric ID</text>
<circle cx="452.4" cy="275.0" r="5" fill="#54A24B" opacity="0.86" />
<text x="459.4" y="279.0" font-size="9">openssh / Rare Token</text>
<circle cx="464.1" cy="220.2" r="5" fill="#54A24B" opacity="0.86" />
<text x="471.1" y="224.2" font-size="9">openssh / Selective Phrase</text>
<circle cx="392.5" cy="74.1" r="5" fill="#54A24B" opacity="0.86" />
<circle cx="406.6" cy="74.1" r="5" fill="#54A24B" opacity="0.86" />
<circle cx="374.3" cy="74.1" r="5" fill="#54A24B" opacity="0.86" />
<circle cx="406.4" cy="74.1" r="5" fill="#54A24B" opacity="0.86" />
<circle cx="409.1" cy="75.6" r="5" fill="#54A24B" opacity="0.86" />
<circle cx="432.3" cy="476.0" r="5" fill="#54A24B" opacity="0.86" />
<text x="439.3" y="480.0" font-size="9">openstack / Numeric ID</text>
<circle cx="434.0" cy="476.0" r="5" fill="#54A24B" opacity="0.86" />
<text x="441.0" y="480.0" font-size="9">openstack / Rare Token</text>
<circle cx="425.3" cy="74.1" r="5" fill="#54A24B" opacity="0.86" />
<circle cx="360.7" cy="88.2" r="5" fill="#54A24B" opacity="0.86" />
<circle cx="383.6" cy="98.8" r="5" fill="#54A24B" opacity="0.86" />
<text x="390.6" y="102.8" font-size="9">proxifier / Common Phrase</text>
<circle cx="356.3" cy="88.2" r="5" fill="#54A24B" opacity="0.86" />
<circle cx="371.2" cy="85.1" r="5" fill="#54A24B" opacity="0.86" />
<circle cx="405.0" cy="281.6" r="5" fill="#54A24B" opacity="0.86" />
<text x="412.0" y="285.6" font-size="9">proxifier / Medium Token</text>
<circle cx="425.3" cy="97.1" r="5" fill="#54A24B" opacity="0.86" />
<text x="432.3" y="101.1" font-size="9">proxifier / Numeric ID</text>
<circle cx="418.7" cy="234.9" r="5" fill="#54A24B" opacity="0.86" />
<text x="425.7" y="238.9" font-size="9">proxifier / Rare Token</text>
<circle cx="419.1" cy="97.7" r="5" fill="#54A24B" opacity="0.86" />
<text x="426.1" y="101.7" font-size="9">proxifier / Selective Phrase</text>
<circle cx="418.7" cy="78.9" r="5" fill="#54A24B" opacity="0.86" />
<circle cx="460.9" cy="76.8" r="5" fill="#54A24B" opacity="0.86" />
<circle cx="412.3" cy="78.9" r="5" fill="#54A24B" opacity="0.86" />
<circle cx="454.9" cy="76.8" r="5" fill="#54A24B" opacity="0.86" />
<circle cx="477.0" cy="74.1" r="5" fill="#54A24B" opacity="0.86" />
<text x="484.0" y="78.1" font-size="9">spark / Medium Token</text>
<circle cx="486.5" cy="74.1" r="5" fill="#54A24B" opacity="0.86" />
<text x="493.5" y="78.1" font-size="9">spark / Numeric ID</text>
<circle cx="496.2" cy="301.8" r="5" fill="#54A24B" opacity="0.86" />
<text x="503.2" y="305.8" font-size="9">spark / Rare Token</text>
<circle cx="488.3" cy="74.1" r="5" fill="#54A24B" opacity="0.86" />
<text x="495.3" y="78.1" font-size="9">spark / Selective Phrase</text>
<circle cx="400.5" cy="74.1" r="5" fill="#54A24B" opacity="0.86" />
<circle cx="457.7" cy="74.1" r="5" fill="#54A24B" opacity="0.86" />
<circle cx="387.3" cy="74.1" r="5" fill="#54A24B" opacity="0.86" />
<circle cx="462.4" cy="74.1" r="5" fill="#54A24B" opacity="0.86" />
<circle cx="430.8" cy="92.9" r="5" fill="#54A24B" opacity="0.86" />
<circle cx="438.1" cy="97.1" r="5" fill="#54A24B" opacity="0.86" />
<text x="445.1" y="101.1" font-size="9">thunderbird / Numeric ID</text>
<circle cx="452.8" cy="234.9" r="5" fill="#54A24B" opacity="0.86" />
<text x="459.8" y="238.9" font-size="9">thunderbird / Rare Token</text>
<circle cx="461.1" cy="174.6" r="5" fill="#54A24B" opacity="0.86" />
<text x="468.1" y="178.6" font-size="9">thunderbird / Selective Phrase</text>
<circle cx="496.1" cy="74.1" r="5" fill="#54A24B" opacity="0.86" />
<text x="503.1" y="78.1" font-size="9">windows / Stress Substring</text>
<circle cx="560.7" cy="74.1" r="5" fill="#54A24B" opacity="0.86" />
<text x="567.7" y="78.1" font-size="9">windows / Common Phrase</text>
<circle cx="500.8" cy="74.1" r="5" fill="#54A24B" opacity="0.86" />
<text x="507.8" y="78.1" font-size="9">windows / Common Token</text>
<circle cx="565.9" cy="74.1" r="5" fill="#54A24B" opacity="0.86" />
<text x="572.9" y="78.1" font-size="9">windows / Conjunctive</text>
<circle cx="547.2" cy="74.1" r="5" fill="#54A24B" opacity="0.86" />
<text x="554.2" y="78.1" font-size="9">windows / Medium Token</text>
<circle cx="594.8" cy="476.0" r="5" fill="#54A24B" opacity="0.86" />
<text x="601.8" y="480.0" font-size="9">windows / Numeric ID</text>
<circle cx="456.6" cy="74.1" r="5" fill="#54A24B" opacity="0.86" />
<circle cx="600.8" cy="476.0" r="5" fill="#54A24B" opacity="0.86" />
<text x="607.8" y="480.0" font-size="9">windows / Selective Phrase</text>
<circle cx="371.9" cy="74.1" r="5" fill="#54A24B" opacity="0.86" />
<circle cx="419.8" cy="74.1" r="5" fill="#54A24B" opacity="0.86" />
<circle cx="422.4" cy="74.1" r="5" fill="#54A24B" opacity="0.86" />
<circle cx="459.4" cy="74.1" r="5" fill="#54A24B" opacity="0.86" />
<circle cx="487.5" cy="74.1" r="5" fill="#54A24B" opacity="0.86" />
<text x="494.5" y="78.1" font-size="9">zookeeper / Medium Token</text>
<circle cx="449.2" cy="93.7" r="5" fill="#54A24B" opacity="0.86" />
<circle cx="539.8" cy="89.4" r="5" fill="#54A24B" opacity="0.86" />
<text x="546.8" y="93.4" font-size="9">zookeeper / Rare Token</text>
<circle cx="444.4" cy="74.1" r="5" fill="#54A24B" opacity="0.86" />
<text x="400.0" y="522" text-anchor="middle" font-size="13">Speedup vs Full Decompression (x)</text>
<text x="18" y="265.0" text-anchor="middle" font-size="13" transform="rotate(-90 18 265.0)">Recall</text>
</svg>