<svg xmlns="http://www.w3.org/2000/svg" width="692" height="1198" viewBox="0 0 692 1198" role="img"><rect width="100%" height="100%" fill="#ffffff" />
<text x="346.0" y="28" text-anchor="middle" font-size="18" font-weight="700">Minor Optimization Recall</text>
<text x="161.0" y="74" font-size="10" text-anchor="middle" transform="rotate(-30 161.0 74)">Stress Substring</text>
<text x="227.0" y="74" font-size="10" text-anchor="middle" transform="rotate(-30 227.0 74)">Common Phrase</text>
<text x="293.0" y="74" font-size="10" text-anchor="middle" transform="rotate(-30 293.0 74)">Common Token</text>
<text x="359.0" y="74" font-size="10" text-anchor="middle" transform="rotate(-30 359.0 74)">Conjunctive</text>
<text x="425.0" y="74" font-size="10" text-anchor="middle" transform="rotate(-30 425.0 74)">Medium Token</text>
<text x="491.0" y="74" font-size="10" text-anchor="middle" transform="rotate(-30 491.0 74)">Numeric ID</text>
<text x="557.0" y="74" font-size="10" text-anchor="middle" transform="rotate(-30 557.0 74)">Rare Token</text>
<text x="623.0" y="74" font-size="10" text-anchor="middle" transform="rotate(-30 623.0 74)">Selective Phrase</text>
<text x="118" y="132" font-size="11" text-anchor="end">android</text>
<rect x="128" y="94" width="63" height="63" fill="rgb(112,183,129)" rx="4" />
<text x="161.0" y="131" text-anchor="middle" font-size="11" fill="#111">0.96</text>
<rect x="194" y="94" width="63" height="63" fill="rgb(108,187,131)" rx="4" />
<text x="227.0" y="131" text-anchor="middle" font-size="11" fill="#111">1.00</text>
<rect x="260" y="94" width="63" height="63" fill="rgb(110,185,130)" rx="4" />
<text x="293.0" y="131" text-anchor="middle" font-size="11" fill="#111">0.98</text>
<rect x="326" y="94" width="63" height="63" fill="rgb(108,187,131)" rx="4" />
<text x="359.0" y="131" text-anchor="middle" font-size="11" fill="#111">1.00</text>
<rect x="392" y="94" width="63" height="63" fill="rgb(109,185,130)" rx="4" />
<text x="425.0" y="131" text-anchor="middle" font-size="11" fill="#111">0.98</text>
<rect x="458" y="94" width="63" height="63" fill="rgb(138,162,119)" rx="4" />
<text x="491.0" y="131" text-anchor="middle" font-size="11" fill="#111">0.74</text>
<rect x="524" y="94" width="63" height="63" fill="rgb(124,173,124)" rx="4" />
<text x="557.0" y="131" text-anchor="middle" font-size="11" fill="#111">0.86</text>
<rect x="590" y="94" width="63" height="63" fill="rgb(108,187,131)" rx="4" />
<text x="623.0" y="131" text-anchor="middle" font-size="11" fill="#111">1.00</text>
<text x="118" y="198" font-size="11" text-anchor="end">apache</text>
<rect x="128" y="160" width="63" height="63" fill="rgb(108,187,131)" rx="4" />
<text x="161.0" y="197" text-anchor="middle" font-size="11" fill="#111">1.00</text>
<rect x="194" y="160" width="63" height="63" fill="rgb(108,187,131)" rx="4" />
<text x="227.0" y="197" text-anchor="middle" font-size="11" fill="#111">1.00</text>
<rect x="260" y="160" width="63" height="63" fill="rgb(108,187,131)" rx="4" />
<text x="293.0" y="197" text-anchor="middle" font-size="11" fill="#111">1.00</text>
<rect x="326" y="160" width="63" height="63" fill="rgb(108,187,131)" rx="4" />
<text x="359.0" y="197" text-anchor="middle" font-size="11" fill="#111">1.00</text>
<rect x="392" y="160" width="63" height="63" fill="rgb(108,187,131)" rx="4" />
<text x="425.0" y="197" text-anchor="middle" font-size="11" fill="#111">1.00</text>
<rect x="458" y="160" width="63" height="63" fill="rgb(108,187,131)" rx="4" />
<text x="491.0" y="197" text-anchor="middle" font-size="11" fill="#111">1.00</text>
<rect x="524" y="160" width="63" height="63" fill="rgb(108,187,131)" rx="4" />
<text x="557.0" y="197" text-anchor="middle" font-size="11" fill="#111">1.00</text>
<rect x="590" y="160" width="63" height="63" fill="rgb(108,187,131)" rx="4" />
<text x="623.0" y="197" text-anchor="middle" font-size="11" fill="#111">1.00</text>
<text x="118" y="264" font-size="11" text-anchor="end">bgl</text>
<rect x="128" y="226" width="63" height="63" fill="rgb(109,185,130)" rx="4" />
<text x="161.0" y="263" text-anchor="middle" font-size="11" fill="#111">0.99</text>
<rect x="194" y="226" width="63" height="63" fill="rgb(110,184,129)" rx="4" />
<text x="227.0" y="263" text-anchor="middle" font-size="11" fill="#111">0.97</text>
<rect x="260" y="226" width="63" height="63" fill="rgb(109,185,130)" rx="4" />
<text x="293.0" y="263" text-anchor="middle" font-size="11" fill="#111">0.99</text>
<rect x="326" y="226" width="63" height="63" fill="rgb(110,184,129)" rx="4" />
<text x="359.0" y="263" text-anchor="middle" font-size="11" fill="#111">0.97</text>
<rect x="392" y="226" width="63" height="63" fill="rgb(110,184,129)" rx="4" />
<text x="425.0" y="263" text-anchor="middle" font-size="11" fill="#111">0.98</text>
<rect x="458" y="226" width="63" height="63" fill="rgb(199,113,96)" rx="4" />
<text x="491.0" y="263" text-anchor="middle" font-size="11" fill="#111">0.23</text>
<rect x="524" y="226" width="63" height="63" fill="rgb(108,187,131)" rx="4" />
<text x="557.0" y="263" text-anchor="middle" font-size="11" fill="#111">1.00</text>
<rect x="590" y="226" width="63" height="63" fill="rgb(108,187,131)" rx="4" />
<text x="623.0" y="263" text-anchor="middle" font-size="11" fill="#111">1.00</text>
<text x="118" y="330" font-size="11" text-anchor="end">hadoop</text>
<rect x="128" y="292" width="63" height="63" fill="rgb(108,187,131)" rx="4" />
<text x="161.0" y="329" text-anchor="middle" font-size="11" fill="#111">1.00</text>
<rect x="194" y="292" width="63" height="63" fill="rgb(108,187,131)" rx="4" />
<text x="227.0" y="329" text-anchor="middle" font-size="11" fill="#111">1.00</text>
<rect x="260" y="292" width="63" height="63" fill="rgb(108,187,131)" rx="4" />
<text x="293.0" y="329" text-anchor="middle" font-size="11" fill="#111">1.00</text>
<rect x="326" y="292" width="63" height="63" fill="rgb(108,187,131)" rx="4" />
<text x="359.0" y="329" text-anchor="middle" font-size="11" fill="#111">1.00</text>
<rect x="392" y="292" width="63" height="63" fill="rgb(108,187,131)" rx="4" />
<text x="425.0" y="329" text-anchor="middle" font-size="11" fill="#111">1.00</text>
<rect x="458" y="292" width="63" height="63" fill="rgb(176,131,105)" rx="4" />
<text x="491.0" y="329" text-anchor="middle" font-size="11" fill="#111">0.42</text>
<rect x="524" y="292" width="63" height="63" fill="rgb(170,136,107)" rx="4" />
<text x="557.0" y="329" text-anchor="middle" font-size="11" fill="#111">0.47</text>
<rect x="590" y="292" width="63" height="63" fill="rgb(108,187,131)" rx="4" />
<text x="623.0" y="329" text-anchor="middle" font-size="11" fill="#111">1.00</text>
<text x="118" y="396" font-size="11" text-anchor="end">hdfs</text>
<rect x="128" y="358" width="63" height="63" fill="rgb(108,187,131)" rx="4" />
<text x="161.0" y="395" text-anchor="middle" font-size="11" fill="#111">1.00</text>
<rect x="194" y="358" width="63" height="63" fill="rgb(108,187,131)" rx="4" />
<text x="227.0" y="395" text-anchor="middle" font-size="11" fill="#111">1.00</text>
<rect x="260" y="358" width="63" height="63" fill="rgb(108,187,131)" rx="4" />
<text x="293.0" y="395" text-anchor="middle" font-size="11" fill="#111">1.00</text>
<rect x="326" y="358" width="63" height="63" fill="rgb(108,187,131)" rx="4" />
<text x="359.0" y="395" text-anchor="middle" font-size="11" fill="#111">1.00</text>
<rect x="392" y="358" width="63" height="63" fill="rgb(108,187,131)" rx="4" />
<text x="425.0" y="395" text-anchor="middle" font-size="11" fill="#111">1.00</text>
<rect x="458" y="358" width="63" height="63" fill="rgb(167,139,108)" rx="4" />
<text x="491.0" y="395" text-anchor="middle" font-size="11" fill="#111">0.50</text>
<rect x="524" y="358" width="63" height="63" fill="rgb(190,120,100)" rx="4" />
<text x="557.0" y="395" text-anchor="middle" font-size="11" fill="#111">0.30</text>
<rect x="590" y="358" width="63" height="63" fill="rgb(161,144,111)" rx="4" />
<text x="623.0" y="395" text-anchor="middle" font-size="11" fill="#111">0.55</text>
<text x="118" y="462" font-size="11" text-anchor="end">healthapp</text>
<rect x="128" y="424" width="63" height="63" fill="rgb(108,186,130)" rx="4" />
<text x="161.0" y="461" text-anchor="middle" font-size="11" fill="#111">0.99</text>
<rect x="194" y="424" width="63" height="63" fill="rgb(108,187,131)" rx="4" />
<text x="227.0" y="461" text-anchor="middle" font-size="11" fill="#111">1.00</text>
<rect x="260" y="424" width="63" height="63" fill="rgb(108,186,130)" rx="4" />
<text x="293.0" y="461" text-anchor="middle" font-size="11" fill="#111">0.99</text>
<rect x="326" y="424" width="63" height="63" fill="rgb(108,187,131)" rx="4" />
<text x="359.0" y="461" text-anchor="middle" font-size="11" fill="#111">1.00</text>
<rect x="392" y="424" width="63" height="63" fill="rgb(108,187,131)" rx="4" />
<text x="425.0" y="461" text-anchor="middle" font-size="11" fill="#111">1.00</text>
<rect x="458" y="424" width="63" height="63" fill="rgb(200,112,96)" rx="4" />
<text x="491.0" y="461" text-anchor="middle" font-size="11" fill="#111">0.21</text>
<rect x="524" y="424" width="63" height="63" fill="rgb(108,187,131)" rx="4" />
<text x="557.0" y="461" text-anchor="middle" font-size="11" fill="#111">1.00</text>
<rect x="590" y="424" width="63" height="63" fill="rgb(226,92,87)" rx="4" />
<text x="623.0" y="461" text-anchor="middle" font-size="11" fill="#111">0.00</text>
<text x="118" y="528" font-size="11" text-anchor="end">hpc</text>
<rect x="128" y="490" width="63" height="63" fill="rgb(109,185,130)" rx="4" />
<text x="161.0" y="527" text-anchor="middle" font-size="11" fill="#111">0.99</text>
<rect x="194" y="490" width="63" height="63" fill="rgb(156,147,112)" rx="4" />
<text x="227.0" y="527" text-anchor="middle" font-size="11" fill="#111">0.59</text>
<rect x="260" y="490" width="63" height="63" fill="rgb(117,179,127)" rx="4" />
<text x="293.0" y="527" text-anchor="middle" font-size="11" fill="#111">0.92</text>
<rect x="326" y="490" width="63" height="63" fill="rgb(156,147,112)" rx="4" />
<text x="359.0" y="527" text-anchor="middle" font-size="11" fill="#111">0.59</text>
<rect x="392" y="490" width="63" height="63" fill="rgb(114,181,128)" rx="4" />
<text x="425.0" y="527" text-anchor="middle" font-size="11" fill="#111">0.94</text>
<rect x="458" y="490" width="63" height="63" fill="rgb(117,179,127)" rx="4" />
<text x="491.0" y="527" text-anchor="middle" font-size="11" fill="#111">0.92</text>
<rect x="524" y="490" width="63" height="63" fill="rgb(165,141,109)" rx="4" />
<text x="557.0" y="527" text-anchor="middle" font-size="11" fill="#111">0.52</text>
<rect x="590" y="490" width="63" height="63" fill="rgb(108,187,131)" rx="4" />
<text x="623.0" y="527" text-anchor="middle" font-size="11" fill="#111">1.00</text>
<text x="118" y="594" font-size="11" text-anchor="end">linux</text>
<rect x="128" y="556" width="63" height="63" fill="rgb(114,182,128)" rx="4" />
<text x="161.0" y="593" text-anchor="middle" font-size="11" fill="#111">0.95</text>
<rect x="194" y="556" width="63" height="63" fill="rgb(108,187,131)" rx="4" />
<text x="227.0" y="593" text-anchor="middle" font-size="11" fill="#111">1.00</text>
<rect x="260" y="556" width="63" height="63" fill="rgb(116,179,127)" rx="4" />
<text x="293.0" y="593" text-anchor="middle" font-size="11" fill="#111">0.93</text>
<rect x="326" y="556" width="63" height="63" fill="rgb(108,187,131)" rx="4" />
<text x="359.0" y="593" text-anchor="middle" font-size="11" fill="#111">1.00</text>
<rect x="392" y="556" width="63" height="63" fill="rgb(108,187,131)" rx="4" />
<text x="425.0" y="593" text-anchor="middle" font-size="11" fill="#111">1.00</text>
<rect x="458" y="556" width="63" height="63" fill="rgb(226,92,87)" rx="4" />
<text x="491.0" y="593" text-anchor="middle" font-size="11" fill="#111">0.00</text>
<rect x="524" y="556" width="63" height="63" fill="rgb(226,92,87)" rx="4" />
<text x="557.0" y="593" text-anchor="middle" font-size="11" fill="#111">0.00</text>
<rect x="590" y="556" width="63" height="63" fill="rgb(226,92,87)" rx="4" />
<text x="623.0" y="593" text-anchor="middle" font-size="11" fill="#111">0.00</text>
<text x="118" y="660" font-size="11" text-anchor="end">mac</text>
<rect x="128" y="622" width="63" height="63" fill="rgb(112,182,129)" rx="4" />
<text x="161.0" y="659" text-anchor="middle" font-size="11" fill="#111">0.96</text>
<rect x="194" y="622" width="63" height="63" fill="rgb(131,168,122)" rx="4" />
<text x="227.0" y="659" text-anchor="middle" font-size="11" fill="#111">0.80</text>
<rect x="260" y="622" width="63" height="63" fill="rgb(113,182,129)" rx="4" />
<text x="293.0" y="659" text-anchor="middle" font-size="11" fill="#111">0.96</text>
<rect x="326" y="622" width="63" height="63" fill="rgb(130,168,122)" rx="4" />
<text x="359.0" y="659" text-anchor="middle" font-size="11" fill="#111">0.81</text>
<rect x="392" y="622" width="63" height="63" fill="rgb(116,180,127)" rx="4" />
<text x="425.0" y="659" text-anchor="middle" font-size="11" fill="#111">0.93</text>
<rect x="458" y="622" width="63" height="63" fill="rgb(112,183,129)" rx="4" />
<text x="491.0" y="659" text-anchor="middle" font-size="11" fill="#111">0.96</text>
<rect x="524" y="622" width="63" height="63" fill="rgb(130,168,122)" rx="4" />
<text x="557.0" y="659" text-anchor="middle" font-size="11" fill="#111">0.81</text>
<rect x="590" y="622" width="63" height="63" fill="rgb(108,187,131)" rx="4" />
<text x="623.0" y="659" text-anchor="middle" font-size="11" fill="#111">1.00</text>
<text x="118" y="726" font-size="11" text-anchor="end">openssh</text>
<rect x="128" y="688" width="63" height="63" fill="rgb(111,184,129)" rx="4" />
<text x="161.0" y="725" text-anchor="middle" font-size="11" fill="#111">0.97</text>
<rect x="194" y="688" width="63" height="63" fill="rgb(108,187,131)" rx="4" />
<text x="227.0" y="725" text-anchor="middle" font-size="11" fill="#111">1.00</text>
<rect x="260" y="688" width="63" height="63" fill="rgb(108,186,130)" rx="4" />
<text x="293.0" y="725" text-anchor="middle" font-size="11" fill="#111">1.00</text>
<rect x="326" y="688" width="63" height="63" fill="rgb(108,187,131)" rx="4" />
<text x="359.0" y="725" text-anchor="middle" font-size="11" fill="#111">1.00</text>
<rect x="392" y="688" width="63" height="63" fill="rgb(116,180,127)" rx="4" />
<text x="425.0" y="725" text-anchor="middle" font-size="11" fill="#111">0.93</text>
<rect x="458" y="688" width="63" height="63" fill="rgb(153,150,114)" rx="4" />
<text x="491.0" y="725" text-anchor="middle" font-size="11" fill="#111">0.62</text>
<rect x="524" y="688" width="63" height="63" fill="rgb(167,139,109)" rx="4" />
<text x="557.0" y="725" text-anchor="middle" font-size="11" fill="#111">0.50</text>
<rect x="590" y="688" width="63" height="63" fill="rgb(150,152,115)" rx="4" />
<text x="623.0" y="725" text-anchor="middle" font-size="11" fill="#111">0.64</text>
<text x="118" y="792" font-size="11" text-anchor="end">openstack</text>
<rect x="128" y="754" width="63" height="63" fill="rgb(108,187,131)" rx="4" />
<text x="161.0" y="791" text-anchor="middle" font-size="11" fill="#111">1.00</text>
<rect x="194" y="754" width="63" height="63" fill="rgb(108,187,131)" rx="4" />
<text x="227.0" y="791" text-anchor="middle" font-size="11" fill="#111">1.00</text>
<rect x="260" y="754" width="63" height="63" fill="rgb(108,187,131)" rx="4" />
<text x="293.0" y="791" text-anchor="middle" font-size="11" fill="#111">1.00</text>
<rect x="326" y="754" width="63" height="63" fill="rgb(108,187,131)" rx="4" />
<text x="359.0" y="791" text-anchor="middle" font-size="11" fill="#111">1.00</text>
<rect x="392" y="754" width="63" height="63" fill="rgb(108,186,130)" rx="4" />
<text x="425.0" y="791" text-anchor="middle" font-size="11" fill="#111">1.00</text>
<rect x="458" y="754" width="63" height="63" fill="rgb(226,92,87)" rx="4" />
<text x="491.0" y="791" text-anchor="middle" font-size="11" fill="#111">0.00</text>
<rect x="524" y="754" width="63" height="63" fill="rgb(226,92,87)" rx="4" />
<text x="557.0" y="791" text-anchor="middle" font-size="11" fill="#111">0.00</text>
<rect x="590" y="754" width="63" height="63" fill="rgb(108,187,131)" rx="4" />
<text x="623.0" y="791" text-anchor="middle" font-size="11" fill="#111">1.00</text>
<text x="118" y="858" font-size="11" text-anchor="end">proxifier</text>
<rect x="128" y="820" width="63" height="63" fill="rgb(112,183,129)" rx="4" />
<text x="161.0" y="857" text-anchor="middle" font-size="11" fill="#111">0.96</text>
<rect x="194" y="820" width="63" height="63" fill="rgb(115,181,128)" rx="4" />
<text x="227.0" y="857" text-anchor="middle" font-size="11" fill="#111">0.94</text>
<rect x="260" y="820" width="63" height="63" fill="rgb(112,183,129)" rx="4" />
<text x="293.0" y="857" text-anchor="middle" font-size="11" fill="#111">0.96</text>
<rect x="326" y="820" width="63" height="63" fill="rgb(111,184,129)" rx="4" />
<text x="359.0" y="857" text-anchor="middle" font-size="11" fill="#111">0.97</text>
<rect x="392" y="820" width="63" height="63" fill="rgb(168,137,108)" rx="4" />
<text x="425.0" y="857" text-anchor="middle" font-size="11" fill="#111">0.48</text>
<rect x="458" y="820" width="63" height="63" fill="rgb(114,181,128)" rx="4" />
<text x="491.0" y="857" text-anchor="middle" font-size="11" fill="#111">0.94</text>
<rect x="524" y="820" width="63" height="63" fill="rgb(155,149,113)" rx="4" />
<text x="557.0" y="857" text-anchor="middle" font-size="11" fill="#111">0.60</text>
<rect x="590" y="820" width="63" height="63" fill="rgb(114,181,128)" rx="4" />
<text x="623.0" y="857" text-anchor="middle" font-size="11" fill="#111">0.94</text>
<text x="118" y="924" font-size="11" text-anchor="end">spark</text>
<rect x="128" y="886" width="63" height="63" fill="rgb(109,185,130)" rx="4" />
<text x="161.0" y="923" text-anchor="middle" font-size="11" fill="#111">0.99</text>
<rect x="194" y="886" width="63" height="63" fill="rgb(108,186,130)" rx="4" />
<text x="227.0" y="923" text-anchor="middle" font-size="11" fill="#111">0.99</text>
<rect x="260" y="886" width="63" height="63" fill="rgb(109,185,130)" rx="4" />
<text x="293.0" y="923" text-anchor="middle" font-size="11" fill="#111">0.99</text>
<rect x="326" y="886" width="63" height="63" fill="rgb(108,186,130)" rx="4" />
<text x="359.0" y="923" text-anchor="middle" font-size="11" fill="#111">0.99</text>
<rect x="392" y="886" width="63" height="63" fill="rgb(108,187,131)" rx="4" />
<text x="425.0" y="923" text-anchor="middle" font-size="11" fill="#111">1.00</text>
<rect x="458" y="886" width="63" height="63" fill="rgb(108,187,131)" rx="4" />
<text x="491.0" y="923" text-anchor="middle" font-size="11" fill="#111">1.00</text>
<rect x="524" y="886" width="63" height="63" fill="rgb(174,133,106)" rx="4" />
<text x="557.0" y="923" text-anchor="middle" font-size="11" fill="#111">0.43</text>
<rect x="590" y="886" width="63" height="63" fill="rgb(108,187,131)" rx="4" />
<text x="623.0" y="923" text-anchor="middle" font-size="11" fill="#111">1.00</text>
<text x="118" y="990" font-size="11" text-anchor="end">thunderbird</text>
<rect x="128" y="952" width="63" height="63" fill="rgb(108,187,131)" rx="4" />
<text x="161.0" y="989" text-anchor="middle" font-size="11" fill="#111">1.00</text>
<rect x="194" y="952" width="63" height="63" fill="rgb(108,187,131)" rx="4" />
<text x="227.0" y="989" text-anchor="middle" font-size="11" fill="#111">1.00</text>
<rect x="260" y="952" width="63" height="63" fill="rgb(108,187,131)" rx="4" />
<text x="293.0" y="989" text-anchor="middle" font-size="11" fill="#111">1.00</text>
<rect x="326" y="952" width="63" height="63" fill="rgb(108,187,131)" rx="4" />
<text x="359.0" y="989" text-anchor="middle" font-size="11" fill="#111">1.00</text>
<rect x="392" y="952" width="63" height="63" fill="rgb(113,182,128)" rx="4" />
<text x="425.0" y="989" text-anchor="middle" font-size="11" fill="#111">0.95</text>
<rect x="458" y="952" width="63" height="63" fill="rgb(114,181,128)" rx="4" />
<text x="491.0" y="989" text-anchor="middle" font-size="11" fill="#111">0.94</text>
<rect x="524" y="952" width="63" height="63" fill="rgb(155,149,113)" rx="4" />
<text x="557.0" y="989" text-anchor="middle" font-size="11" fill="#111">0.60</text>
<rect x="590" y="952" width="63" height="63" fill="rgb(137,163,120)" rx="4" />
<text x="623.0" y="989" text-anchor="middle" font-size="11" fill="#111">0.75</text>
<text x="118" y="1056" font-size="11" text-anchor="end">windows</text>
<rect x="128" y="1018" width="63" height="63" fill="rgb(108,187,131)" rx="4" />
<text x="161.0" y="1055" text-anchor="middle" font-size="11" fill="#111">1.00</text>
<rect x="194" y="1018" width="63" height="63" fill="rgb(108,187,131)" rx="4" />
<text x="227.0" y="1055" text-anchor="middle" font-size="11" fill="#111">1.00</text>
<rect x="260" y="1018" width="63" height="63" fill="rgb(108,187,131)" rx="4" />
<text x="293.0" y="1055" text-anchor="middle" font-size="11" fill="#111">1.00</text>
<rect x="326" y="1018" width="63" height="63" fill="rgb(108,187,131)" rx="4" />
<text x="359.0" y="1055" text-anchor="middle" font-size="11" fill="#111">1.00</text>
<rect x="392" y="1018" width="63" height="63" fill="rgb(108,187,131)" rx="4" />
<text x="425.0" y="1055" text-anchor="middle" font-size="11" fill="#111">1.00</text>
<rect x="458" y="1018" width="63" height="63" fill="rgb(226,92,87)" rx="4" />
<text x="491.0" y="1055" text-anchor="middle" font-size="11" fill="#111">0.00</text>
<rect x="524" y="1018" width="63" height="63" fill="rgb(108,187,131)" rx="4" />
<text x="557.0" y="1055" text-anchor="middle" font-size="11" fill="#111">1.00</text>
<rect x="590" y="1018" width="63" height="63" fill="rgb(226,92,87)" rx="4" />
<text x="623.0" y="1055" text-anchor="middle" font-size="11" fill="#111">0.00</text>
<text x="118" y="1122" font-size="11" text-anchor="end">zookeeper</text>
<rect x="128" y="1084" width="63" height="63" fill="rgb(108,187,131)" rx="4" />
<text x="161.0" y="1121" text-anchor="middle" font-size="11" fill="#111">1.00</text>
<rect x="194" y="1084" width="63" height="63" fill="rgb(108,187,131)" rx="4" />
<text x="227.0" y="1121" text-anchor="middle" font-size="11" fill="#111">1.00</text>
<rect x="260" y="1084" width="63" height="63" fill="rgb(108,187,131)" rx="4" />
<text x="293.0" y="1121" text-anchor="middle" font-size="11" fill="#111">1.00</text>
<rect x="326" y="1084" width="63" height="63" fill="rgb(108,187,131)" rx="4" />
<text x="359.0" y="1121" text-anchor="middle" font-size="11" fill="#111">1.00</text>
<rect x="392" y="1084" width="63" height="63" fill="rgb(108,187,131)" rx="4" />
<text x="425.0" y="1121" text-anchor="middle" font-size="11" fill="#111">1.00</text>
<rect x="458" y="1084" width="63" height="63" fill="rgb(113,182,128)" rx="4" />
<text x="491.0" y="1121" text-anchor="middle" font-size="11" fill="#111">0.95</text>
<rect x="524" y="1084" width="63" height="63" fill="rgb(112,183,129)" rx="4" />
<text x="557.0" y="1121" text-anchor="middle" font-size="11" fill="#111">0.96</text>
<rect x="590" y="1084" width="63" height="63" fill="rgb(108,187,131)" rx="4" />
<text x="623.0" y="1121" text-anchor="middle" font-size="11" fill="#111">1.00</text>
</svg>